/* XPM */
static char * folder_closed_xpm[] = {
"20 18 63 1",
" 	c None",
".	c #000000",
"+	c #800000",
"@	c #008000",
"#	c #808000",
"$	c #000080",
"%	c #800080",
"&	c #008080",
"*	c #C0C0C0",
"=	c #C0DCC0",
"-	c #A6CAF0",
";	c #4C4C4C",
">	c #6D6D6D",
",	c #6E6E6E",
"'	c #838383",
")	c #8C8C8C",
"!	c #996701",
"~	c #9A6802",
"{	c #9C6A04",
"]	c #9E6C06",
"^	c #A06E08",
"/	c #A3710B",
"(	c #A5730D",
"_	c #A87610",
":	c #AB7913",
"<	c #AE7C16",
"[	c #B07E18",
"}	c #B3811B",
"|	c #B4811C",
"1	c #B5821D",
"2	c #B7841F",
"3	c #B88520",
"4	c #BA8722",
"5	c #BC8924",
"6	c #BD8A25",
"7	c #BF8C27",
"8	c #C08D28",
"9	c #C28F2A",
"0	c #C5922D",
"a	c #C7942F",
"b	c #C8C8C8",
"c	c #C99631",
"d	c #CB9833",
"e	c #CC9934",
"f	c #D3A03B",
"g	c #D6D6D6",
"h	c #DCA944",
"i	c #DEDEDE",
"j	c #DFDFDF",
"k	c #E6B34E",
"l	c #EFBC57",
"m	c #F6F6F6",
"n	c #F7F7F7",
"o	c #F8C560",
"p	c #FFCC67",
"q	c #FFD46F",
"r	c #FFE07B",
"s	c #FFE681",
"t	c #FFEB85",
"u	c #FFF48E",
"v	c #FFF791",
"w	c #FFFF99",
"x	c #FFFFFF",
"  eedcajj           ",
"  eedcajj           ",
" exxxxx99b          ",
"exwwwwwxx64211}[j   ",
"dvuuuuuuuxxxxxx<)ii ",
"ctss00000008553|}}}j",
"ctss00000008553|}}}j",
"ar00xxxxxxxxxxxsx//)",
"0qeewwwwwwwwwwwow^^,",
"9pddwvvvvvvvvvvlw]]>",
"8p00wttttttttttkw{{>",
"8p00wttttttttttkw{{>",
"6p77wrrrrrrrrrrhw~~>",
"4p33wqqqqqqqqqqfw!!,",
"j1}}[<:__(/^]]{~!;;'",
" b''>>>>>>>>>>>>>''b",
" b''>>>>>>>>>>>>>''b",
"  jjgggggggggggggjj "};
