/* XPM */
static char * folder_open_xpm[] = {
"20 18 57 1",
" 	c None",
".	c #000000",
"+	c #800000",
"@	c #008000",
"#	c #808000",
"$	c #000080",
"%	c #800080",
"&	c #008080",
"*	c #C0C0C0",
"=	c #C0DCC0",
"-	c #A6CAF0",
";	c #656565",
">	c #717171",
",	c #898989",
"'	c #9B7B19",
")	c #9D7B1A",
"!	c #A17E19",
"~	c #A5730D",
"{	c #B18919",
"]	c #B9B9B9",
"^	c #BF9929",
"/	c #C5C5C5",
"(	c #C69A19",
"_	c #C69A1A",
":	c #C79C1C",
"<	c #C9A021",
"[	c #CEA222",
"}	c #CEBC5C",
"|	c #CFA226",
"1	c #D1D1D1",
"2	c #D7B840",
"3	c #DABF6C",
"4	c #DDDDDD",
"5	c #DEB243",
"6	c #E2B343",
"7	c #E2C150",
"8	c #E7BE53",
"9	c #EFBA43",
"0	c #F0E47A",
"a	c #F5F5F5",
"b	c #F7F089",
"c	c #FBF996",
"d	c #FDD570",
"e	c #FFC75B",
"f	c #FFD76C",
"g	c #FFD784",
"h	c #FFDF7C",
"i	c #FFE37C",
"j	c #FFE784",
"k	c #FFEB84",
"l	c #FFF38C",
"m	c #FFF39C",
"n	c #FFF794",
"o	c #FFFBF7",
"p	c #FFFF9C",
"q	c #FFFFA5",
"r	c #FFFFFF",
"  [[[[[44           ",
" [rrrrr((/          ",
" [rrrrr((/          ",
"(rppppprr(((((((4   ",
"(mlllllllrrrrrr()// ",
"(k77((((((((((((({{/",
"(g((3rroorrrrrrjr!!,",
"(g((3rroorrrrrrjr!!,",
"(d((bppppppppppec''>",
"(6<<qnnnnnnnnnn8}~~>",
"(|22pkkkkkkkkkj9(;;,",
"(_00piiiiiiiiih5);;]",
"(_00piiiiiiiiih5);;]",
"(:ppfffffffffff^~>>1",
"4~~~~~~~~~~~~~~~;,,4",
" /,,>>>>>>>>>>>>,// ",
"  441111111111114   ",
"  441111111111114   "};
